<svg xmlns="http://www.w3.org/2000/svg" width="46.833" height="46.833" viewBox="0 0 46.833 46.833"><g transform="translate(-356 -247.592)"><path d="M366.851,271.008a.921.921,0,0,1,.437-.778L384.3,259.84a.91.91,0,1,1,.948,1.553l-15.742,9.615,15.742,9.613a.91.91,0,1,1-.948,1.553l-17.015-10.39A.915.915,0,0,1,366.851,271.008Z" fill="#3f3f3f"/><path d="M356,271.008a23.417,23.417,0,1,1,23.415,23.417A23.441,23.441,0,0,1,356,271.008Zm45.014,0a21.6,21.6,0,1,0-21.6,21.6A21.623,21.623,0,0,0,401.014,271.008Z" fill="#3f3f3f"/></g></svg>