<svg xmlns="http://www.w3.org/2000/svg" width="46.833" height="46.833" viewBox="0 0 46.833 46.833"><g transform="translate(-459.473 -247.593)"><path d="M495.455,271.01a.922.922,0,0,1-.436.778L478,282.178a.91.91,0,1,1-.948-1.553L492.8,271.01,477.055,261.4a.91.91,0,1,1,.948-1.553l17.016,10.39A.916.916,0,0,1,495.455,271.01Z" fill="#3f3f3f"/><path d="M506.306,271.01a23.417,23.417,0,1,1-23.415-23.417A23.441,23.441,0,0,1,506.306,271.01Zm-45.014,0a21.6,21.6,0,1,0,21.6-21.6A21.623,21.623,0,0,0,461.292,271.01Z" fill="#3f3f3f"/></g></svg>