<svg xmlns="http://www.w3.org/2000/svg" width="45.002" height="62.001" viewBox="0 0 45.002 62.001">
  <g id="グループ_20" data-name="グループ 20" transform="translate(-281.993 -455.166)">
    <g id="グループ_12" data-name="グループ 12">
      <g id="グループ_10" data-name="グループ 10">
        <path id="パス_9" data-name="パス 9" d="M283.683,515.507H325.3v-48.54l-10.28-10.13h-31.34Zm42.46,1.66h-43.31a.837.837,0,0,1-.84-.83V456a.837.837,0,0,1,.84-.83h32.53a.839.839,0,0,1,.6.25l10.78,10.61a.837.837,0,0,1,.25.59v49.72A.839.839,0,0,1,326.143,517.167Z" fill="#a1a1a1" fill-rule="evenodd"/>
      </g>
      <g id="グループ_11" data-name="グループ 11">
        <path id="パス_10" data-name="パス 10" d="M316.2,465.787h7.91l-7.9-7.78Zm9.94,1.66h-10.79a.837.837,0,0,1-.85-.83l.02-10.62a.84.84,0,0,1,1.44-.58l10.78,10.61a.837.837,0,0,1,.19.911A.858.858,0,0,1,326.143,467.447Z" fill="#a1a1a1" fill-rule="evenodd"/>
      </g>
    </g>
    <g id="グループ_19" data-name="グループ 19">
      <g id="グループ_13" data-name="グループ 13">
        <path id="パス_11" data-name="パス 11" d="M305.933,468.287H289.4a.835.835,0,1,1,0-1.67h16.53a.835.835,0,1,1,0,1.67Z" fill="#a1a1a1"/>
      </g>
      <g id="グループ_14" data-name="グループ 14">
        <path id="パス_12" data-name="パス 12" d="M319.583,475.768H289.4a.831.831,0,1,1,0-1.661h30.18a.831.831,0,1,1,0,1.661Z" fill="#a1a1a1"/>
      </g>
      <g id="グループ_15" data-name="グループ 15">
        <path id="パス_13" data-name="パス 13" d="M319.583,483.257H289.4a.83.83,0,1,1,0-1.659h30.18a.83.83,0,1,1,0,1.659Z" fill="#a1a1a1"/>
      </g>
      <g id="グループ_16" data-name="グループ 16">
        <path id="パス_14" data-name="パス 14" d="M319.583,490.737H289.4a.83.83,0,1,1,0-1.66h30.18a.83.83,0,1,1,0,1.66Z" fill="#a1a1a1"/>
      </g>
      <g id="グループ_17" data-name="グループ 17">
        <path id="パス_15" data-name="パス 15" d="M319.583,498.228H289.4a.831.831,0,1,1,0-1.661h30.18a.831.831,0,1,1,0,1.661Z" fill="#a1a1a1"/>
      </g>
      <g id="グループ_18" data-name="グループ 18">
        <path id="パス_16" data-name="パス 16" d="M319.583,505.717H289.4a.838.838,0,0,1-.85-.829.847.847,0,0,1,.85-.841h30.18a.847.847,0,0,1,.85.841A.838.838,0,0,1,319.583,505.717Z" fill="#a1a1a1"/>
      </g>
    </g>
  </g>
</svg>
