<svg xmlns="http://www.w3.org/2000/svg" width="63" height="58" viewBox="0 0 63 58">
  <g id="グループ_26" data-name="グループ 26" transform="translate(-454.993 -459.167)">
    <g id="グループ_21" data-name="グループ 21">
      <path id="パス_17" data-name="パス 17" d="M506.233,495.527a.977.977,0,0,1-.97-.969V489h-18.34a.971.971,0,0,1-.97-.97v-6.25a.97.97,0,0,1,1.94,0v5.281h18.34a.971.971,0,0,1,.97.969v6.531A.971.971,0,0,1,506.233,495.527Z" fill="#a1a1a1"/>
    </g>
    <g id="グループ_22" data-name="グループ 22">
      <path id="パス_18" data-name="パス 18" d="M466.753,495.527a.971.971,0,0,1-.97-.969v-6.531a.97.97,0,0,1,.97-.969h20.17a.969.969,0,1,1,0,1.939h-19.21v5.561A.969.969,0,0,1,466.753,495.527Z" fill="#a1a1a1"/>
    </g>
    <g id="グループ_23" data-name="グループ 23">
      <path id="パス_19" data-name="パス 19" d="M477.093,480.817h19.66v-19.71h-19.66Zm20.62,1.93h-21.58a.965.965,0,0,1-.97-.97V460.138a.971.971,0,0,1,.97-.971h21.58a.971.971,0,0,1,.97.971v21.639A.965.965,0,0,1,497.713,482.747Z" fill="#a1a1a1" fill-rule="evenodd"/>
    </g>
    <g id="グループ_24" data-name="グループ 24">
      <path id="パス_20" data-name="パス 20" d="M456.923,515.228h19.65v-19.7h-19.65Zm20.62,1.939h-21.58a.965.965,0,0,1-.97-.971V494.558a.965.965,0,0,1,.97-.971h21.58a.965.965,0,0,1,.97.971V516.2A.965.965,0,0,1,477.543,517.167Z" fill="#a1a1a1" fill-rule="evenodd"/>
    </g>
    <g id="グループ_25" data-name="グループ 25">
      <path id="パス_21" data-name="パス 21" d="M496.4,515.228h19.659v-19.7H496.4Zm20.619,1.939H495.443a.964.964,0,0,1-.969-.971V494.558a.965.965,0,0,1,.969-.971h21.579a.966.966,0,0,1,.971.971V516.2A.966.966,0,0,1,517.022,517.167Z" fill="#a1a1a1" fill-rule="evenodd"/>
    </g>
  </g>
</svg>
